<svg data-v-0dd9719b="" version="1.0" xmlns="http://www.w3.org/2000/svg" xmlns:xlink="http://www.w3.org/1999/xlink" width="100%" height="100%" viewBox="0 0 340.000000 250.000000" preserveAspectRatio="xMidYMid meet" color-interpolation-filters="sRGB" style="margin: auto;"> <rect data-v-0dd9719b="" x="0" y="0" width="100%" height="100%" fill="#fff" fill-opacity="1" class="background"></rect> <rect data-v-0dd9719b="" x="0" y="0" width="100%" height="100%" fill="url(#watermark)" fill-opacity="1" class="watermarklayer"></rect> <g data-v-0dd9719b="" fill="#333" class="icon-text-wrapper icon-svg-group iconsvg" transform="translate(48.12000274658203,94.58637428283691)"><g class="iconsvg-imagesvg" transform="translate(0,0)"><g><rect fill="#333" fill-opacity="0" stroke-width="2" x="0" y="0" width="60" height="60.8272506082725" class="image-rect"></rect> <svg x="0" y="0" width="60" height="60.8272506082725" filtersec="colorsb7165101664" class="image-svg-svg primary" style="overflow: visible;"><svg xmlns="http://www.w3.org/2000/svg" viewBox="-0.01667151227593422 -0.0010506667895242572 98.62667083740234 99.98663330078125"><path d="M4.5 70.71a49.73 49.73 0 0 0 13.39 17.61L97.16 46.7z" fill="#2a3d8f"></path><path d="M19.15 89.34a50 50 0 0 0 79.46-27.68z" fill="#272660"></path><path d="M76.66 7.71A50 50 0 0 0 0 51.29l82.29-39.45a51 51 0 0 0-5.63-4.13z" fill="#29aae1"></path><path d="M88 25L.06 52.31A50.25 50.25 0 0 0 4.15 70z" fill="#1f76bb"></path></svg></svg> <!----></g></g> <g transform="translate(67,6.19737434387207)"><g data-gra="path-name" fill-rule="" class="tp-name iconsvg-namesvg" transform="translate(0,0)"><g transform="scale(1)"><g><path d="M3.96-12.6L3.96-3.02 8.6-3.02 8.6-8.86 27.4-8.86 27.4-3.02 32.04-3.02 32.04-12.6ZM1.8 3.82C8.17 3.53 13.03 1.76 16.42-0.94L34.2 3.96 34.2-0.36 19.66-4.36C20.48-5.54 21.13-6.8 21.6-8.17L16.6-8.17C14.47-3.35 9.4-0.94 1.8-0.36ZM1.8-13.72L34.2-13.72 34.2-17.6 20.27-17.6 20.27-18.94 31.21-18.94 31.21-28.26 20.27-28.26 20.27-29.52 15.66-29.52 15.66-28.26 4.79-28.26 4.79-18.94 15.66-18.94 15.66-17.6 1.8-17.6ZM9.4-22.54L9.4-24.62 15.66-24.62 15.66-22.54ZM20.27-22.54L20.27-24.62 26.6-24.62 26.6-22.54ZM69.3-28.08L52.24-28.08 52.24 2.88 69.3 2.88ZM38.45 3.6L42.98 3.6 42.98-23.83 45.83-23.83C45.47-20.59 44.75-17.68 43.63-14.58 45.18-12.13 45.94-9.86 45.94-7.38 45.94-4.93 45.18-2.66 43.63-0.22L48.56-0.22C49.72-2.45 50.36-4.9 50.36-7.38 50.36-9.9 49.68-12.31 48.38-14.58 49.86-19.04 50.54-23.15 50.54-28.44L38.45-28.44ZM56.84-1.84L56.84-10.44 64.69-10.44 64.69-1.84ZM56.84-15.12L56.84-23.36 64.69-23.36 64.69-15.12ZM73.8-0.47L73.8 3.96C93.74 3.13 102.64-2.77 105.3-13.9L90.68-13.9C98.64-16.67 102.78-21.56 104.44-28.62L84.42-28.62C82.48-25.56 79.81-23.51 75.92-21.96L75.92-17.28C79.56-18.29 82.55-19.84 84.82-21.85L87.44-17.42C83.99-16.42 79.74-15.8 74.52-15.52L74.52-11.27C77.72-11.41 80.64-11.66 83.27-12.1 81.43-9.86 78.95-8.28 75.56-7.06L75.56-2.34C79.81-3.49 83.16-5.33 85.64-7.7L88.63-2.77C84.78-1.55 79.92-0.79 73.8-0.47ZM85.97-22.97C86.33-23.36 86.65-23.76 86.98-24.16L97.63-24.16C96.23-22 94.28-20.3 91.62-19.01L89.28-22.97ZM86.04-8.1C86.47-8.53 86.83-8.96 87.19-9.43L98.21-9.43C96.91-7.49 95.18-5.9 92.92-4.64L90.79-8.1ZM114.52 3.78L119.12 3.78 119.12-0.68 135.22-0.68 135.22 3.78 139.82 3.78 139.82-19.69 120.85-19.69C121.25-20.52 121.61-21.35 121.9-22.18L142.2-22.18 142.2-26.71 123.23-26.71C123.44-27.65 123.62-28.58 123.73-29.52L119.16-29.52C118.98-28.55 118.76-27.61 118.55-26.71L109.8-26.71 109.8-22.18 116.93-22.18C115.24-18.36 112.68-15.19 109.19-12.6L109.19-6.7C111.13-7.81 112.93-9.18 114.52-10.73ZM119.12-5.08L119.12-7.96 135.22-7.96 135.22-5.11ZM119.12-12.35L119.12-15.23 135.22-15.23 135.22-12.35ZM178.56 2.99L178.56-2.23C174.42-4.28 171.86-7.78 171.11-13.07L178.2-13.07 178.2-17.6 164.34-17.6 164.34-29.16 159.66-29.16 159.66-17.6 145.8-17.6 145.8-13.07 152.89-13.07C152.14-7.78 149.58-4.28 145.44-2.23L145.44 2.99C152.6-0.14 156.53-5.51 157.32-13.07L159.66-13.07 159.7 3.6 164.34 3.6 164.34-13.07 166.68-13.07C167.47-5.51 171.4-0.14 178.56 2.99ZM147.17-28.33L150.52-19.73 155.3-19.73 151.96-28.33ZM168.7-19.73L173.45-19.73 176.8-28.33 172.04-28.33Z" transform="translate(-1.7999999523162842, 29.520000457763672)"></path></g> <!----> <!----> <!----> <!----> <!----> <!----> <!----></g></g> <g data-gra="path-slogan" fill-rule="" class="tp-slogan iconsvg-slogansvg" fill="#333" transform="translate(27.064441680908203,39.47999954223633)"><!----> <!----> <g transform="scale(1, 1)"><g transform="scale(1)"><path d="M7.31-3.61L4.69-3.61L4.69-4.59L8.44-4.59L8.44 0L7.69 0L7.41-1.08Q6.42 0.09 4.59 0.14L4.59 0.14Q2.86 0.14 1.92-0.75L1.92-0.75Q0.52-2.06 0.56-4.36L0.56-4.36Q0.89-8.63 4.64-8.81L4.64-8.81Q7.83-8.63 8.30-6L8.30-6L7.17-6Q6.70-7.78 4.59-7.83L4.59-7.83Q1.92-7.64 1.78-4.31L1.78-4.31Q1.78-0.75 4.64-0.75L4.64-0.75Q5.67-0.75 6.42-1.31L6.42-1.31Q7.36-2.06 7.31-3.61L7.31-3.61ZM15.89-3.19L15.89-8.58L17.06-8.58L17.06-3.05Q16.92 0.05 13.55 0.14L13.55 0.14Q10.41 0.05 10.27-2.86L10.27-2.86L10.27-8.58L11.44-8.58L11.44-3.19Q11.48-0.84 13.59-0.80L13.59-0.80Q15.89-0.84 15.89-3.19L15.89-3.19ZM19.03-8.58L20.20-8.58L20.20 0L19.03 0L19.03-8.58ZM29.11-8.58L25.88-3.47L25.88 0L24.70 0L24.70-3.47L21.47-8.58L22.83-8.58L25.27-4.45L27.75-8.58L29.11-8.58ZM35.81 0L34.97-2.48L31.50-2.48L30.61 0L29.44 0L32.67-8.58L33.98-8.58L37.08 0L35.81 0ZM33.23-7.31L31.88-3.52L34.55-3.52L33.28-7.31L33.23-7.31ZM39.52-8.58L43.83-1.64L43.83-8.58L44.95-8.58L44.95 0L43.64 0L39.28-6.94L39.23-6.94L39.23 0L38.11 0L38.11-8.58L39.52-8.58ZM53.16-3.61L50.53-3.61L50.53-4.59L54.28-4.59L54.28 0L53.53 0L53.25-1.08Q52.27 0.09 50.44 0.14L50.44 0.14Q48.70 0.14 47.77-0.75L47.77-0.75Q46.36-2.06 46.41-4.36L46.41-4.36Q46.73-8.63 50.48-8.81L50.48-8.81Q53.67-8.63 54.14-6L54.14-6L53.02-6Q52.55-7.78 50.44-7.83L50.44-7.83Q47.77-7.64 47.63-4.31L47.63-4.31Q47.63-0.75 50.48-0.75L50.48-0.75Q51.52-0.75 52.27-1.31L52.27-1.31Q53.20-2.06 53.16-3.61L53.16-3.61ZM62.91 0L59.44 0L59.44-8.58L62.95-8.58Q66.42-8.39 66.56-4.41L66.56-4.41Q66.38-0.09 62.91 0L62.91 0ZM62.77-7.64L60.61-7.64L60.61-0.98L62.86-0.98Q65.30-1.13 65.39-4.31L65.39-4.31Q65.34-7.55 62.77-7.64L62.77-7.64ZM73.69-3.19L73.69-8.58L74.86-8.58L74.86-3.05Q74.72 0.05 71.34 0.14L71.34 0.14Q68.20 0.05 68.06-2.86L68.06-2.86L68.06-8.58L69.23-8.58L69.23-3.19Q69.28-0.84 71.39-0.80L71.39-0.80Q73.69-0.84 73.69-3.19L73.69-3.19ZM83.44-4.27L83.44-4.27Q83.25-7.64 80.44-7.83L80.44-7.83Q77.58-7.69 77.44-4.27L77.44-4.27Q77.58-0.94 80.44-0.80L80.44-0.80Q83.25-0.98 83.44-4.27ZM84.61-4.27L84.61-4.27Q84.33 0 80.44 0.14L80.44 0.14Q76.50 0 76.22-4.27L76.22-4.27Q76.45-8.72 80.44-8.81L80.44-8.81Q84.33-8.67 84.61-4.27ZM92.91-8.58L89.67-3.47L89.67 0L88.50 0L88.50-3.47L85.27-8.58L86.63-8.58L89.06-4.45L91.55-8.58L92.91-8.58ZM100.73-4.27L100.73-4.27Q100.55-7.64 97.73-7.83L97.73-7.83Q94.88-7.69 94.73-4.27L94.73-4.27Q94.88-0.94 97.73-0.80L97.73-0.80Q100.55-0.98 100.73-4.27ZM101.91-4.27L101.91-4.27Q101.63 0 97.73 0.14L97.73 0.14Q93.80 0 93.52-4.27L93.52-4.27Q93.75-8.72 97.73-8.81L97.73-8.81Q101.63-8.67 101.91-4.27ZM108.94-3.19L108.94-8.58L110.11-8.58L110.11-3.05Q109.97 0.05 106.59 0.14L106.59 0.14Q103.45 0.05 103.31-2.86L103.31-2.86L103.31-8.58L104.48-8.58L104.48-3.19Q104.53-0.84 106.64-0.80L106.64-0.80Q108.94-0.84 108.94-3.19L108.94-3.19ZM120.14-8.58L120.14 0L119.02 0L119.02-5.06Q119.02-5.77 119.02-7.22L119.02-7.22L116.58 0L115.41 0L113.02-7.22L112.97-7.22Q112.97-6.70 113.02-5.67L113.02-5.67Q113.02-5.16 113.02-5.06L113.02-5.06L113.02 0L111.84 0L111.84-8.58L113.53-8.58L116.02-1.31L118.45-8.58L120.14-8.58ZM122.02-8.58L123.19-8.58L123.19 0L122.02 0L122.02-8.58Z" transform="translate(-0.5609879032258065, 8.8125)"></path></g></g></g></g></g><defs v-gra="od"></defs></svg>